:FULLY-SPECIFIED
:FORCE-ALL-JOINTS-BE-3DOF
:DEGREES
1631
root -14.988 14.5898 19.3872 -19.3519 -71.3425 19.4515
lfemur 13.8386 -11.1738 -13.4292
ltibia 25.9303 -0 0
lfoot -21.1412 29.2128 -0.000842077
ltoes -44.5169 0 0
rfemur -52.466 -14.7067 7.61775
rtibia 66.4139 -0 0
rfoot -10.1639 10.4169 -0.00189147
rtoes 4.88485 -0 0
lowerback 12.9624 4.27031 -7.90446
upperback -0.285703 4.38547 -0.591747
thorax -8.1546 2.41823 2.92613
lowerneck 0.970882 -12.5714 -12.4822
upperneck 3.95869 -17.2365 9.6232
head 2.92393 -8.64323 4.16595
lclavicle 8.51295e-014 -2.26615e-014 0
lhumerus -71.8818 -16.9985 104.202
lradius 104.054 -0 0
lwrist 54.6435 0 0
lhand -11.4119 49.3565 0.0789621
lfingers 7.12502 -0 0
lthumb 14.6156 78.6959 0.0470818
rclavicle 8.51295e-014 -2.26615e-014 0
rhumerus 47.0955 -3.83937 -55.9467
rradius 18.9392 -0 0
rwrist 23.8474 0 0
rhand -18.5952 -35.4958 0.0144984
rfingers 7.12502 -0 0
rthumb 7.69608 -65.3403 0.0131422
1632
root -15.0003 14.5881 19.3928 -19.1488 -71.352 19.2545
lfemur 13.8682 -11.2363 -13.4053
ltibia 25.9308 -0 0
lfoot -21.147 29.295 -0.00069925
ltoes -44.414 0 0
rfemur -52.4233 -14.7367 7.64011
rtibia 66.4101 -0 0
rfoot -10.266 10.4565 -0.00152888
rtoes 4.89806 -0 0
lowerback 12.9483 4.25472 -7.86027
upperback -0.30501 4.37568 -0.559773
thorax -8.16555 2.41378 2.93808
lowerneck 0.997368 -12.6176 -12.479
upperneck 3.92028 -17.3012 9.64912
head 2.9173 -8.67551 4.17065
lclavicle 8.51295e-014 -2.26615e-014 0
lhumerus -71.9349 -16.9847 104.215
lradius 104.077 -0 0
lwrist 54.6566 0 0
lhand -12.2649 49.1817 0.0744892
lfingers 7.12502 -0 0
lthumb 13.7944 78.589 0.0445576
rclavicle 8.51295e-014 -2.26615e-014 0
rhumerus 47.0867 -3.85878 -56.0491
rradius 18.8796 -0 0
rwrist 23.9266 0 0
rhand -18.5387 -35.3852 0.0145042
rfingers 7.12502 -0 0
rthumb 7.75062 -65.2278 0.0131426
1633
root -15.0127 14.5864 19.3983 -18.9323 -71.3646 19.0447
lfemur 13.858 -11.3048 -13.3803
ltibia 25.9969 -0 0
lfoot -21.1531 29.3725 -0.00054322
ltoes -44.3062 0 0
rfemur -52.3859 -14.756 7.66198
rtibia 66.3987 -0 0
rfoot -10.3553 10.4931 -0.00115312
rtoes 4.88318 -0 0
lowerback 12.9364 4.23865 -7.8128
upperback -0.323269 4.36555 -0.527615
thorax -8.17633 2.40898 2.94839
lowerneck 1.02747 -12.6662 -12.4785
upperneck 3.87439 -17.3697 9.68205
head 2.90929 -8.70967 4.17804
lclavicle 8.51295e-014 -2.26615e-014 0
lhumerus -71.9824 -16.9791 104.228
lradius 104.1 -0 0
lwrist 54.6707 0 0
lhand -13.0762 49.0077 0.0680457
lfingers 7.12502 -0 0
lthumb 13.0133 78.4793 0.0408609
rclavicle 8.51295e-014 -2.26615e-014 0
rhumerus 47.0737 -3.87463 -56.1341
rradius 18.8344 -0 0
rwrist 23.9594 0 0
rhand -18.4733 -35.2868 0.0140539
rfingers 7.12502 -0 0
rthumb 7.81373 -65.127 0.0127304
1634
root -15.025 14.5848 19.4038 -18.7032 -71.381 18.8241
lfemur 13.8037 -11.3791 -13.3546
ltibia 26.1343 -0 0
lfoot -21.1591 29.4442 -0.000384378
ltoes -44.1937 0 0
rfemur -52.3562 -14.7632 7.68304
rtibia 66.3802 -0 0
rfoot -10.4307 10.5259 -0.000789504
rtoes 4.83693 -0 0
lowerback 12.9267 4.22226 -7.76225
upperback -0.340278 4.35528 -0.495537
thorax -8.18674 2.40391 2.95684
lowerneck 1.06171 -12.7172 -12.4812
upperneck 3.82014 -17.4418 9.72254
head 2.89965 -8.74566 4.18843
lclavicle 8.51295e-014 -2.26615e-014 0
lhumerus -72.023 -16.9835 104.242
lradius 104.122 -0 0
lwrist 54.685 0 0
lhand -13.8379 48.8347 0.0597784
lfingers 7.12502 -0 0
lthumb 12.2801 78.3668 0.0360504
rclavicle 8.51295e-014 -2.26615e-014 0
rhumerus 47.0568 -3.8856 -56.1978
rradius 18.8063 -0 0
rwrist 23.9389 0 0
rhand -18.3982 -35.2028 0.0130998
rfingers 7.12502 -0 0
rthumb 7.88624 -65.0399 0.0118623
1635
root -15.0374 14.5831 19.4093 -18.4623 -71.4021 18.5949
lfemur 13.7014 -11.4592 -13.329
ltibia 26.3488 -0 0
lfoot -21.1643 29.5093 -0.000234681
ltoes -44.0768 0 0
rfemur -52.3366 -14.7568 7.703
rtibia 66.3551 -0 0
rfoot -10.4912 10.5543 -0.000463807
rtoes 4.75601 -0 0
lowerback 12.9192 4.20572 -7.70884
upperback -0.355839 4.34502 -0.463804
thorax -8.19655 2.39864 2.96325
lowerneck 1.10065 -12.7704 -12.4876
upperneck 3.75663 -17.5173 9.77114
head 2.88813 -8.78343 4.20212
lclavicle 8.51295e-014 -2.26615e-014 0
lhumerus -72.0554 -17.0001 104.256
lradius 104.141 -0 0
lwrist 54.699 0 0
lhand -14.5416 48.6632 0.0498905
lfingers 7.12502 -0 0
lthumb 11.6025 78.2514 0.0302212
rclavicle 8.51295e-014 -2.26615e-014 0
rhumerus 47.0359 -3.89035 -56.2361
rradius 18.7982 -0 0
rwrist 23.8583 0 0
rhand -18.3125 -35.1354 0.0116043
rfingers 7.12502 -0 0
rthumb 7.96892 -64.9689 0.0105045
1636
root -15.0497 14.5814 19.4148 -18.2103 -71.4285 18.359
lfemur 13.5471 -11.5452 -13.304
ltibia 26.6463 -0 0
lfoot -21.1683 29.5667 -0.00010732
ltoes -43.9556 0 0
rfemur -52.3296 -14.7352 7.72155
rtibia 66.3241 -0 0
rfoot -10.5358 10.5776 -0.000201035
rtoes 4.63714 -0 0
lowerback 12.9139 4.1892 -7.65277
upperback -0.369749 4.33496 -0.43268
thorax -8.20556 2.39323 2.96741
lowerneck 1.14482 -12.8257 -12.4982
upperneck 3.68299 -17.5961 9.8284
head 2.87448 -8.82292 4.21943
lclavicle 8.51295e-014 -2.26615e-014 0
lhumerus -72.0782 -17.0309 104.272
lradius 104.158 -0 0
lwrist 54.7118 0 0
lhand -15.1794 48.4935 0.0386387
lfingers 7.12502 -0 0
lthumb 10.9885 78.133 0.0235064
rclavicle 8.51295e-014 -2.26615e-014 0
rhumerus 47.011 -3.88753 -56.245
rradius 18.8128 -0 0
rwrist 23.7107 0 0
rhand -18.2154 -35.0868 0.00954321
rfingers 7.12502 -0 0
rthumb 8.0626 -64.9162 0.00863546
1637
root -15.0621 14.5797 19.4204 -17.9478 -71.4611 18.1182
lfemur 13.3366 -11.6371 -13.2803
ltibia 27.0325 -0 0
lfoot -21.1704 29.6156 -1.62899e-005
ltoes -43.8303 0 0
rfemur -52.3374 -14.6971 7.73836
rtibia 66.2877 -0 0
rfoot -10.5634 10.5951 -2.40975e-005
rtoes 4.47702 -0 0
lowerback 12.9107 4.17287 -7.59426
upperback -0.381808 4.32528 -0.402432
thorax -8.21356 2.38777 2.96912
lowerneck 1.19475 -12.8829 -12.5135
upperneck 3.5983 -17.6781 9.89488
head 2.85843 -8.86408 4.24067
lclavicle 8.51295e-014 -2.26615e-014 0
lhumerus -72.0899 -17.0779 104.29
lradius 104.172 -0 0
lwrist 54.7228 0 0
lhand -15.7432 48.326 0.0263302
lfingers 7.12502 -0 0
lthumb 10.4457 78.0117 0.0160796
rclavicle 8.51295e-014 -2.26615e-014 0
rhumerus 46.9822 -3.8758 -56.2205
rradius 18.8529 -0 0
rwrist 23.4894 0 0
rhand -18.1061 -35.0594 0.00690925
rfingers 7.12502 -0 0
rthumb 8.16807 -64.8839 0.00624914
1638
root -15.0744 14.578 19.4259 -17.6755 -71.5008 17.8746
lfemur 13.066 -11.7348 -13.2584
ltibia 27.5131 -0 0
lfoot -21.1701 29.655 2.41331e-005
ltoes -43.7012 0 0
rfemur -52.3625 -14.641 7.7531
rtibia 66.2463 -0 0
rfoot -10.5732 10.6061 4.76524e-005
rtoes 4.27236 -0 0
lowerback 12.9096 4.15691 -7.53351
upperback -0.391814 4.31614 -0.373325
thorax -8.22034 2.38232 2.96818
lowerneck 1.25101 -12.9419 -12.5339
upperneck 3.50167 -17.763 9.97116
head 2.83974 -8.90685 4.26616
lclavicle 8.51295e-014 -2.26615e-014 0
lhumerus -72.0893 -17.1432 104.31
lradius 104.18 -0 0
lwrist 54.7313 0 0
lhand -16.2249 48.161 0.0133185
lfingers 7.12502 -0 0
lthumb 9.98217 77.8874 0.00815694
rclavicle 8.51295e-014 -2.26615e-014 0
rhumerus 46.9496 -3.85379 -56.1587
rradius 18.9213 -0 0
rwrist 23.1874 0 0
rhand -17.9837 -35.0554 0.00371556
rfingers 7.12502 -0 0
rthumb 8.28615 -64.8742 0.00335864
1639
root -15.0868 14.5763 19.4314 702.606 -71.5483 377.63
lfemur 12.7312 -11.8384 -13.2388
ltibia 28.094 0 0
lfoot -21.1668 29.6838 0
ltoes -43.5683 0 0
rfemur -52.4073 -14.5654 7.76542
rtibia 66.2006 0 0
rfoot -10.5639 10.61 0
rtoes 4.01987 0 0
lowerback 12.9107 4.14147 -7.47073
upperback -0.399566 4.30773 -0.345624
thorax -8.22569 2.37695 2.96438
lowerneck 1.31412 -13.0026 -12.5599
upperneck 3.3922 -17.8507 10.0578
head 2.81815 -8.95117 4.29621
lclavicle 8.51295e-014 -2.26615e-014 0
lhumerus -72.075 -17.2288 104.333
lradius 104.184 0 0
lwrist 54.7366 0 0
lhand -16.6163 47.9989 0
lfingers 7.12502 0 0
lthumb 9.60554 77.7599 0
rclavicle 8.51295e-014 -2.26615e-014 0
rhumerus 46.9132 -3.82012 -56.0554
rradius 19.0208 0 0
rwrist 22.798 0 0
rhand -17.8474 -35.077 0
rfingers 7.12502 0 0
rthumb 8.41762 -64.8893 0
1640
root -15.0552 14.5662 19.4499 -17.0833 -71.5987 17.3632
lfemur 12.3143 -11.9526 -13.2109
ltibia 28.8171 -0 0
lfoot -21.1594 29.6968 4.53403e-005
ltoes -43.4188 0 0
rfemur -52.4819 -14.4813 7.78961
rtibia 66.1749 -0 0
rfoot -10.5421 10.6199 0.00172084
rtoes 3.71279 -0 0
lowerback 12.9136 4.12877 -7.39819
upperback -0.406842 4.30404 -0.320642
thorax -8.23151 2.37338 2.95098
lowerneck 1.38279 -13.0675 -12.5916
upperneck 3.2675 -17.9443 10.1558
head 2.79351 -8.99849 4.33073
lclavicle 1.11816e-014 -2.50469e-014 0
lhumerus -72.0705 -17.3167 104.361
lradius 104.188 -0 0
lwrist 54.751 0 0
lhand -16.9201 47.8407 -0.0125157
lfingers 7.12502 -0 0
lthumb 9.31326 77.6299 -0.00775116
rclavicle 1.11816e-014 -2.50469e-014 0
rhumerus 46.8763 -3.79069 -55.9247
rradius 19.103 -0 0
rwrist 22.3391 0 0
rhand -17.7109 -35.1289 -0.00398459
rfingers 7.12502 -0 0
rthumb 8.54935 -64.9361 -0.00413806
1641
root -15.0236 14.5561 19.4683 -16.7265 -71.6471 17.0548
lfemur 11.8056 -12.0811 -13.165
ltibia 29.7091 -0 0
lfoot -21.1474 29.6907 0.000284366
ltoes -43.2423 0 0
rfemur -52.5914 -14.3992 7.83745
rtibia 66.188 -0 0
rfoot -10.514 10.6471 0.00672149
rtoes 3.34967 -0 0
lowerback 12.9181 4.12037 -7.30943
upperback -0.415301 4.30807 -0.29911
thorax -8.23957 2.3729 2.92283
lowerneck 1.45535 -13.1387 -12.6285
upperneck 3.12667 -18.0463 10.2655
head 2.76599 -9.05004 4.36927
lclavicle 1.11816e-014 -2.50469e-014 0
lhumerus -72.0965 -17.3898 104.395
lradius 104.199 -0 0
lwrist 54.7851 0 0
lhand -17.1482 47.6867 -0.0233189
lfingers 7.12502 -0 0
lthumb 9.09388 77.4979 -0.014596
rclavicle 1.11816e-014 -2.50469e-014 0
rhumerus 46.8412 -3.77982 -55.7824
rradius 19.1256 -0 0
rwrist 21.8332 0 0
rhand -17.5863 -35.2123 -0.00797553
rfingers 7.12502 -0 0
rthumb 8.66986 -65.0175 -0.00923969
1642
root -14.9919 14.5459 19.4868 -16.3286 -71.6938 16.709
lfemur 11.2135 -12.222 -13.1033
ltibia 30.7528 -0 0
lfoot -21.1317 29.6679 0.000691582
ltoes -43.0423 0 0
rfemur -52.731 -14.317 7.90481
rtibia 66.2322 -0 0
rfoot -10.4787 10.6882 0.0144253
rtoes 2.93517 -0 0
lowerback 12.9244 4.11545 -7.20661
upperback -0.424569 4.31846 -0.280426
thorax -8.24947 2.37494 2.88211
lowerneck 1.53177 -13.2156 -12.6702
upperneck 2.97103 -18.1559 10.3862
head 2.73583 -9.10541 4.41164
lclavicle 1.11816e-014 -2.50469e-014 0
lhumerus -72.147 -17.4521 104.433
lradius 104.215 -0 0
lwrist 54.8358 0 0
lhand -17.3063 47.5364 -0.0323228
lfingers 7.12502 -0 0
lthumb 8.94191 77.3638 -0.0204611
rclavicle 1.11816e-014 -2.50469e-014 0
rhumerus 46.8069 -3.78381 -55.6276
rradius 19.101 -0 0
rwrist 21.2805 0 0
rhand -17.4701 -35.3239 -0.0119167
rfingers 7.12502 -0 0
rthumb 8.78246 -65.1295 -0.0150788
1643
root -14.9603 14.5358 19.5052 -15.8943 -71.7396 16.3301
lfemur 10.5465 -12.3735 -13.0277
ltibia 31.9309 -0 0
lfoot -21.1132 29.6309 0.00124321
ltoes -42.8226 0 0
rfemur -52.8954 -14.2323 7.98757
rtibia 66.2997 -0 0
rfoot -10.4349 10.7398 0.0242527
rtoes 2.47394 -0 0
lowerback 12.9325 4.11321 -7.0919
upperback -0.43427 4.33389 -0.263984
thorax -8.26082 2.3789 2.83099
lowerneck 1.61205 -13.2976 -12.7163
upperneck 2.8019 -18.2721 10.5173
head 2.70325 -9.1642 4.4576
lclavicle 1.11816e-014 -2.50469e-014 0
lhumerus -72.2159 -17.5072 104.476
lradius 104.235 -0 0
lwrist 54.9001 0 0
lhand -17.4 47.3891 -0.0394885
lfingers 7.12502 -0 0
lthumb 8.85188 77.2274 -0.0252919
rclavicle 1.11816e-014 -2.50469e-014 0
rhumerus 46.7724 -3.79893 -55.4592
rradius 19.0414 -0 0
rwrist 20.6809 0 0
rhand -17.3587 -35.4604 -0.0157662
rfingers 7.12502 -0 0
rthumb 8.89044 -65.2685 -0.0214466
